 <svg  version="1.0" xmlns="http://www.w3.org/2000/svg"  width="211.000000pt" height="165.000000pt" viewBox="0 0 211.000000 165.000000"  preserveAspectRatio="xMidYMid meet">  <g transform="translate(0.000000,165.000000) scale(0.050000,-0.050000)" fill="#ae6ad2" stroke="none"> <path d="M1752 2349 c-38 -100 -20 -115 121 -101 l132 14 -12 -96 c-19 -143 -184 -827 -221 -915 -44 -104 -44 -104 63 -92 l95 11 49 255 c57 300 45 291 171 111 202 -289 521 -564 816 -703 405 -192 954 -141 954 88 0 77 -15 81 -94 28 -372 -253 -1095 52 -1560 656 l-93 122 66 55 c137 114 598 438 687 482 116 58 116 68 1 83 -116 16 -124 12 -547 -334 -181 -149 -331 -268 -333 -266 -2 2 24 118 59 258 l63 255 85 0 c79 0 86 4 86 52 0 47 -5 50 -65 37 -101 -22 -454 -15 -484 10 -20 17 -29 14 -39 -10z"/> <path d="M442 2316 c-27 -73 -6 -82 151 -69 l147 12 0 -58 c0 -67 -146 -768 -190 -914 -16 -54 -30 -104 -30 -113 0 -8 56 -14 125 -13 69 1 191 -4 271 -12 320 -30 544 121 544 367 0 118 -46 186 -159 236 l-79 35 99 45 c234 109 200 366 -61 458 -63 22 -192 35 -428 41 -185 6 -345 15 -355 21 -9 6 -25 -10 -35 -36z m797 -112 c171 -127 13 -384 -237 -384 -110 0 -113 -2 -81 -61 16 -31 42 -39 129 -39 230 0 327 -179 202 -370 -86 -131 -535 -167 -531 -43 4 130 181 905 212 929 50 38 239 18 306 -32z"/> </g> </svg> 